<svg xmlns="http://www.w3.org/2000/svg" width="129.493" height="87.411" viewBox="0 0 129.493 87.411">
  <path id="Icon_zocial-email" data-name="Icon zocial-email" d="M.072,83.737V11.81q0-.125.375-2.373L42.779,45.651.571,86.234a10.583,10.583,0,0,1-.5-2.5ZM5.691,4.443a5.381,5.381,0,0,1,2.123-.375H121.823a7.071,7.071,0,0,1,2.248.375L81.614,40.781l-5.619,4.5L64.881,54.392,53.767,45.276l-5.619-4.5ZM5.816,91.1,48.4,50.271,64.881,63.632,81.364,50.271,123.946,91.1a6,6,0,0,1-2.123.375H7.814a5.656,5.656,0,0,1-2-.375ZM86.984,45.651,129.191,9.438a7.453,7.453,0,0,1,.375,2.373V83.737a9.571,9.571,0,0,1-.375,2.5Z" transform="translate(-0.072 -4.068)"/>
</svg>
